<svg xmlns="http://www.w3.org/2000/svg" width="409.86" height="412" viewBox="51.07 50 409.86 412" enable-background="new 51.07 50 409.86 412"><path d="M341.206 197.143h119.724v183.794c0 44.771-36.293 81.062-81.062 81.062h-247.735c-44.769 0-81.062-36.293-81.062-81.062v-183.794h119.189c-12.2 17.142-19.399 38.087-19.399 60.729 0 57.918 46.953 104.871 104.873 104.871 57.919 0 104.872-46.953 104.872-104.871 0-22.643-7.201-43.589-19.4-60.729zm119.724-66.081v53.239h-130.482c-19.023-19.315-45.466-31.302-74.715-31.302-29.251 0-55.693 11.986-74.714 31.302h-129.949v-53.239c0-27.322 13.532-51.469 34.245-66.154v87.289h16.62v-96.36c3.77-1.516 7.679-2.752 11.704-3.691v100.052h16.621v-102.151c.625-.015 1.245-.047 1.873-.047h9.598v102.196h16.62v-102.196h221.517c44.769 0 81.062 36.292 81.062 81.062zm-37.051-34.165c0-7.181-5.822-13.002-13.004-13.002h-43.82c-7.184 0-13.004 5.821-13.004 13.002v44.785c0 7.181 5.82 13.002 13.004 13.002h43.82c7.182 0 13.004-5.821 13.004-13.002v-44.785zm-248.941 160.976c0-24.188 10.698-45.91 27.593-60.729 5.926-5.197 12.613-9.539 19.875-12.842 10.168-4.625 21.445-7.224 33.325-7.224 11.881 0 23.158 2.599 33.326 7.224 7.265 3.303 13.948 7.646 19.876 12.842 16.896 14.819 27.594 36.542 27.594 60.729 0 44.549-36.242 80.793-80.795 80.793-44.549 0-80.794-36.245-80.794-80.793zm21.348 0c0 32.979 26.735 59.711 59.714 59.711s59.713-26.731 59.713-59.711-26.732-59.713-59.713-59.713c-32.979-.001-59.714 26.733-59.714 59.713z"/></svg>